<?xml version="1.0" encoding="UTF-8"?><svg id="uuid-b11b36c8-beef-423c-996d-cb7fa41753e1" xmlns="http://www.w3.org/2000/svg" viewBox="0 0 211.36 267.63"><defs><style>.uuid-eba756a2-9dcb-49d7-83b5-0e910d81be5e{fill:#c5e8c1;}.uuid-eba756a2-9dcb-49d7-83b5-0e910d81be5e,.uuid-dfe67e70-dc31-452a-8cab-fa669d1fcff1,.uuid-c83590b3-fc6a-4f32-8af7-11e4ea9ad7da,.uuid-8365863c-5e0a-4bce-bf5c-a9aa3871f1bf,.uuid-621986a9-1e20-4220-bd43-037a867bfc32,.uuid-bbeccc1f-062e-457a-8cd4-3bc401146290,.uuid-0111252f-5a67-4f32-afa5-4b187d658993,.uuid-d2ff596a-257b-4e9b-8ca0-d3316e85c181,.uuid-c3e3ca6b-1001-446b-bcb7-1db5c79813a3,.uuid-31922e8f-c7ee-4e8d-a8c6-ce114c38b436,.uuid-2118e9c8-24f7-409c-aebf-caa5e9d80a22,.uuid-c9b77182-686e-434e-a240-54624e1faa95,.uuid-d043c021-b941-4cc0-b0b1-01bbaa05159c,.uuid-194fc4ea-189c-43fe-9205-2dc2b125ade7,.uuid-4102e531-f7cf-4623-80bf-9f199b8fa208,.uuid-4223b660-832b-4635-a98d-d360a868ca2f,.uuid-42324df9-7030-4923-80d1-a27379be3979,.uuid-b30670db-4628-4511-9bdc-fc95f7be9a35,.uuid-bddc861e-2337-4273-890c-60e3d2c6d63a,.uuid-6d198cf4-d88b-45b0-a6a2-f97a4ddabaad,.uuid-7c039cac-fe12-452f-80b2-6d7487f8f1a6,.uuid-e92ab52b-60a9-4cb7-a5fa-58a8d8e4258a,.uuid-935ccb24-9cb1-4a1c-ace4-a7c8dd67037a,.uuid-a54151cb-3418-4387-bf60-237a7849910a,.uuid-12973d02-681f-4504-a913-455e7011fd53,.uuid-79e23828-cd3c-4d41-ac19-0df384bab8cf,.uuid-1d84b2a9-cf2f-4897-9c76-b0cc6d80dba6,.uuid-1ee66804-e1b9-4739-a4b3-7b89d171c940,.uuid-2a9de5bc-5e6d-425f-ae2c-dafa0ec6fc13,.uuid-83d8997a-6d76-4d39-bb1b-472f28b5e50a,.uuid-faa0de50-e443-4eb3-a677-6fc92f033958,.uuid-219214c0-b362-48ad-801a-b996a00b4fec,.uuid-7c46c963-645d-4e6b-a958-ec14949c4892,.uuid-40d781e5-fc5d-434e-855a-43a0089b85bf,.uuid-34c18d5f-e051-4a38-b24f-d38c75c9b7ea,.uuid-3596ea8a-e1fe-479e-94e8-5d95c46bf8c3,.uuid-10672714-f367-446e-b53e-a6ea1d7eb35f,.uuid-93dd8967-1e1a-4ebc-96ba-387ab38056f6,.uuid-389da1e6-5b38-4dbe-b810-55e563a80cbf,.uuid-c901d38a-87a1-4d1c-a43e-e2f13d81a6f5,.uuid-9794b91c-b0c1-488a-9eb6-8b39472a6fa9,.uuid-4a4a8bb7-e12e-42e7-af3f-b34cab7363d6,.uuid-5a0ef8e2-ff0d-4956-8d9c-e11dcdd37124{stroke-width:0px;}.uuid-dfe67e70-dc31-452a-8cab-fa669d1fcff1{fill:#5d3315;}.uuid-c83590b3-fc6a-4f32-8af7-11e4ea9ad7da{fill:#f17c28;}.uuid-8365863c-5e0a-4bce-bf5c-a9aa3871f1bf{fill:#296e57;}.uuid-621986a9-1e20-4220-bd43-037a867bfc32{fill:#ecaf60;}.uuid-bbeccc1f-062e-457a-8cd4-3bc401146290{fill:#fcfdf3;}.uuid-0111252f-5a67-4f32-afa5-4b187d658993{fill:#d05a1a;}.uuid-d2ff596a-257b-4e9b-8ca0-d3316e85c181{fill:#de561b;}.uuid-c3e3ca6b-1001-446b-bcb7-1db5c79813a3{fill:#c86b37;}.uuid-31922e8f-c7ee-4e8d-a8c6-ce114c38b436{fill:#062631;}.uuid-2118e9c8-24f7-409c-aebf-caa5e9d80a22{fill:#091f2a;}.uuid-c9b77182-686e-434e-a240-54624e1faa95{fill:#f4862a;}.uuid-d043c021-b941-4cc0-b0b1-01bbaa05159c{fill:#cc4418;}.uuid-194fc4ea-189c-43fe-9205-2dc2b125ade7{fill:#f0dcc2;}.uuid-4102e531-f7cf-4623-80bf-9f199b8fa208{fill:#fe9931;}.uuid-4223b660-832b-4635-a98d-d360a868ca2f{fill:#90c659;}.uuid-42324df9-7030-4923-80d1-a27379be3979{fill:#f2d4b2;}.uuid-b30670db-4628-4511-9bdc-fc95f7be9a35{fill:#fbfbf1;}.uuid-bddc861e-2337-4273-890c-60e3d2c6d63a{fill:#ecab61;}.uuid-6d198cf4-d88b-45b0-a6a2-f97a4ddabaad{fill:#ee8029;}.uuid-7c039cac-fe12-452f-80b2-6d7487f8f1a6{fill:#072128;}.uuid-e92ab52b-60a9-4cb7-a5fa-58a8d8e4258a{fill:#fd9b32;}.uuid-935ccb24-9cb1-4a1c-ace4-a7c8dd67037a{fill:#032432;}.uuid-a54151cb-3418-4387-bf60-237a7849910a{fill:#428b53;}.uuid-12973d02-681f-4504-a913-455e7011fd53{fill:#d8581f;}.uuid-79e23828-cd3c-4d41-ac19-0df384bab8cf{fill:#b13317;}.uuid-1d84b2a9-cf2f-4897-9c76-b0cc6d80dba6{fill:#ed7823;}.uuid-1ee66804-e1b9-4739-a4b3-7b89d171c940{fill:#d1521f;}.uuid-2a9de5bc-5e6d-425f-ae2c-dafa0ec6fc13{fill:#aa3711;}.uuid-83d8997a-6d76-4d39-bb1b-472f28b5e50a{fill:#ec7d2b;}.uuid-faa0de50-e443-4eb3-a677-6fc92f033958{fill:#c03f16;}.uuid-219214c0-b362-48ad-801a-b996a00b4fec{fill:#b83616;}.uuid-7c46c963-645d-4e6b-a958-ec14949c4892{fill:#06232e;}.uuid-40d781e5-fc5d-434e-855a-43a0089b85bf{fill:#f8d9b4;}.uuid-34c18d5f-e051-4a38-b24f-d38c75c9b7ea{fill:#0c1e2b;}.uuid-3596ea8a-e1fe-479e-94e8-5d95c46bf8c3{fill:#c9703b;}.uuid-10672714-f367-446e-b53e-a6ea1d7eb35f{fill:#d6581f;}.uuid-93dd8967-1e1a-4ebc-96ba-387ab38056f6{fill:#eef8ed;}.uuid-389da1e6-5b38-4dbe-b810-55e563a80cbf{fill:#ebac56;}.uuid-c901d38a-87a1-4d1c-a43e-e2f13d81a6f5{fill:#ecc4a2;}.uuid-9794b91c-b0c1-488a-9eb6-8b39472a6fa9{fill:#fad7a6;}.uuid-4a4a8bb7-e12e-42e7-af3f-b34cab7363d6{fill:#d6521e;}.uuid-5a0ef8e2-ff0d-4956-8d9c-e11dcdd37124{fill:#448e4c;}</style></defs><path class="uuid-935ccb24-9cb1-4a1c-ace4-a7c8dd67037a" d="M92.36,42.53c2.14-7.3,4.89-13.97,9.55-19.65,12.35-15.07,28.97-20.86,47.73-21.76,4.63-.22,9.3.21,13.93.57,7.51.59,14.92.21,22.31-1.28,7.56-1.53,10.96,1.17,10.26,8.85-2.41,26.44-12.86,48.42-36.27,63.39,6.75,4.64,13.34,9.31,19.21,14.94,50.11,48.09,40.57,130.81-19.56,165.74-55.65,32.33-133.28,8.49-154.45-58.01-16.66-52.34,8.9-108.2,58.64-127.65,6.22-2.43,12.62-4.06,19.34-3.95,3.3.06,3.62-1.02,2.22-3.78-6.79-13.41-15.55-25.05-28.72-32.87-4.74-2.82-6-7.63-3.26-12.18,2.8-4.66,8.76-6.12,13.29-2.91,9.51,6.74,16.73,15.53,22.38,25.67.64,1.16,1.24,2.34,1.92,3.48.23.38.66.63,1.48,1.39Z"/><path class="uuid-bbeccc1f-062e-457a-8cd4-3bc401146290" d="M22.32,125.57c8.53-19.88,22.11-34.95,42.06-43.84,13.64-6.08,26.74-5.74,38.88,3.82,1.04.82,1.71,1.75,3.27.37,11.95-10.56,25.67-10.54,39.18-4.61,20.95,9.19,35.84,24.78,44.22,46.28.94,1.82.84,3.96,1.77,5.78.44,1.71.5,3.49,1.03,5.18.14.5.2,1.01.22,1.54-.21,2.18-.82,3.75-3.41,2.14-1.85-1.79-2.72-4.19-3.24-6.54-.99-4.46-3.88-7.93-5.6-11.99-3.66-8.89-9.68-16.14-16.12-23.09-2.07-2.08-3.92-4.39-6.53-5.88-.4-.23-.78-.48-1.16-.75-3.08-2.29-6.3-4.31-10.89-5.72,3.78,1.37,6.13,3.24,8.11,5.58,1.47,1.73,2.74,3.76,1,5.79-1.71,2-3.63.43-5.37-.48-.59-.31-1.15-.67-1.7-1.06-9.63-7.72-20.17-9.19-31.29-3.97-7.82,3.67-15.16,3.8-22.91-.2-7.34-3.79-15.07-3.6-22.69-.42-3.54,1.16-6.48,3.29-9.22,5.75-1.52,1.36-3.15,2.81-5.14.81-2.1-2.1-.87-3.97.71-5.61,2.17-2.25,4.12-4.79,7.17-6.01-8.87,4.28-16.89,9.65-22.81,17.7-4.24,4.95-7.2,10.75-10.79,16.14-2.33,3.4-3.58,7.37-5.7,10.88-1.52,1.49-1.87,3.5-2.37,5.45-.18.47-.43.89-.73,1.29-1.29,1.38-2.27,1.07-2.88-.59-.46-1.25-.46-2.57-.34-3.89.41-3.5,1.88-6.65,3.24-9.84Z"/><path class="uuid-79e23828-cd3c-4d41-ac19-0df384bab8cf" d="M168.01,216.64c8.91,6.16,8.61,5.88.82,13.17-13.24,12.41-28.84,20.24-46.5,22.89-27.95,4.18-53.72-1.83-76.18-19.72-3.37-2.68-6.64-5.47-9.29-8.96-1.24-1.63-1.14-2.41.52-3.49,2.35-1.51,4.56-3.25,6.83-4.89-.12,4.28,1.86,6.86,5.94,8.4,4.09,1.55,6.03,5.98,9.97,8.08,10.33,5.51,21.05,9.61,32.74,11.03,5.05.61,10.17.47,15.18,1.46,9.33,1.86,17.68-1.78,25.97-5.01,6.28-2.45,13.22-3.75,18.56-7.96,4.85-3.82,9.81-7.69,13.68-12.64.6-.77.86-1.81,1.75-2.37Z"/><path class="uuid-c9b77182-686e-434e-a240-54624e1faa95" d="M166.02,197.46c-2.88.53-3.11,3.12-4.02,5.18-1.3,11.28-10.17,16.19-18.58,20.76-22.97,12.48-46.74,12.84-70.5,2.31-9.15-4.05-17.54-9.52-22.87-18.52-.19-.45-.35-.94-.26-1.42.66-3.9.1-5.13-3.73-8.05-1.27-.08-2.54-.17-3.81-.25-2.02-.82-1.45-2.74-1.71-4.24-.53-3.05-.83-6.07-2.83-8.72-2.09-2.76-.93-5.58.6-8.24.74-1.15,1.59-2.29,3.15-1.93,1.71.4,1.62,1.93,1.55,3.25-.1,1.77.32,3.26,1.66,4.49,2.68,2.45,4.13,5.44,4.63,9.1.4,2.91,2.97,4.81,4.89,6.68,8.95,8.71,18.25,17.23,30.12,21.68,4.98,1.87,10.58,2.9,15.89,3.43,6.98.69,14.2,1.67,21.2-.79,2.34-.82,4.85-.92,6.02-3.73.69-1.65,2.47-2.2,3.62-.74,1.76,2.21,2.99,1.3,4.43-.11,1.22-1.19,2.83-1.71,4.3-2.47,2.95-1.52,6.52-2.25,7.39-6.36.26-1.22,1.73-2.04,2.96-2.53,6.61-2.65,8.98-8.14,11.35-14.43,1.91-5.07,5.58-9.67,9.13-14.04,4.1-.94,4.82,1.52,4.53,4.7-.49,5.41-3.47,9.72-6.46,14.01-.75.71-1.83.48-2.66.96Z"/><path class="uuid-4223b660-832b-4635-a98d-d360a868ca2f" d="M104.84,48.84c.25-.99-.15-2.21.98-2.9,2.51-4.33,4.42-9.05,7.86-12.79,9.64-10.48,21.45-16.33,35.85-16.5,7.09-.08,14.17.11,20.9-.17-1.34-.95-3.88,1.63-5.14-1.26,4.72,0,9.45.09,14.17-.05,2.11-.06,2.71.61,2.04,2.55-.84,2.42-1.66,4.85-2.49,7.28-8.29,16.42-22.05,23.94-40.03,24.64-4.52.18-4.8-2.48-4.14-5.87,2.33-1.29,4.65-2.58,6.98-3.87,3.88-1.37,7.89-2.43,11.23-5,2.33-4.95,1.64-6.13-3.55-6.02-1.13.02-2.26.12-3.39.18-10.81,1.04-21.13,3.4-29.78,10.6-3.49,2.9-5.6,6.92-8.82,10.02-1.39,1.33-2.74,2.51-2.65-.84Z"/><path class="uuid-d2ff596a-257b-4e9b-8ca0-d3316e85c181" d="M50.28,206.65c3.02.71,3.26,3.91,5.12,5.72,8.76,8.53,19.28,13.76,30.97,16.77,22.85,5.88,44.13,2.03,63.53-11.19,5.43-3.7,10.19-8.53,12.11-15.29.34,3.14-.34,6.49,1.92,9.23,1.4,3.36.33,5.92-2.17,8.43-5.45,5.46-11.4,9.57-18.91,12.24-11.22,3.98-22.49,7.03-34.35,7.23-16.5.29-32.11-2.62-46.31-12.06-5.02-3.34-10.11-6.15-13.48-11.29-.97-1.48-2.61-2.71-1.5-4.82.41-1.33.83-2.66,1.24-4,.49-.56,1.15-.8,1.84-.97Z"/><path class="uuid-d043c021-b941-4cc0-b0b1-01bbaa05159c" d="M47.2,211.61c3.55,5.52,6.74,11.52,13.57,13.62,3.86,1.19,6.66,4.05,10.14,5.84,12.14,6.25,24.98,7.51,38.1,7.4,12.22-.1,23.71-3.85,35.23-7.77,7.64-2.6,12.68-7.9,18.27-12.95,2.11-1.91-.21-4.24,1.41-5.88,1.36,1.59,2.73,3.18,4.09,4.77.33,3.73-2.35,5.68-4.74,7.66-2.86,2.37-6.78,3.66-7.47,8.06-.06.37-.59.82-.99.94-12.3,3.8-23.9,9.57-36.44,12.75-4.36,1.1-8.56.03-12.65-.31-7.77-.64-15.78-.81-23.26-3.27-10.38-3.42-21.44-5.66-29.16-14.63-1.29-1.51-3.12-2.75-5.29-3.54-5.31-1.94-5.86-3.61-3.81-8.66.99-1.34,1.98-2.69,2.98-4.03Z"/><path class="uuid-219214c0-b362-48ad-801a-b996a00b4fec" d="M36.26,203.69c-.4,1.78-1.9,2.68-3.14,3.69-4.8,3.91-6.05,3.42-9-1.81-4.11-7.29-6.82-14.99-8.41-23.17-.62-3.21-.28-5.78,2.32-8.02,2.89-2.48,4.07-6.41,7.14-8.79,1.16.86,1,2.03.64,3.15-.46,1.44-.66,2.9-.77,4.4-.2,2.63-.94,6.17,1.45,7.27,1.97.9,3.37-2.54,4.81-4.24,4.65-5.52,10.13-10.01,16.35-13.62,2.8-2.16,6.03-3.23,9.5-3.65,3.65.69,3.14,2.43.84,4.14-3.69,2.76-7.77,4.97-11.67,7.42-3.61,2.27-7.27,4.48-9.93,7.93-1.65.95-2.5,2.64-3.69,4.02-2.2,2.3-3.23,8.46-1.55,11.27,1.94,3.24,3.38,6.7,5.12,10.03Z"/><path class="uuid-faa0de50-e443-4eb3-a677-6fc92f033958" d="M183.96,162.79c3.74,4.58,7.46,9.17,11.23,13.72.97,1.17.9,2.45.65,3.75-1.83,9.64-5.18,18.71-9.85,27.34-1.51,2.78-3.27,3.05-5.54,1.51-2.54-1.72-5.61-2.99-6.53-6.39.86-.68,2.67-.08,2.81-1.5.56-5.43,3.31-10.02,5.35-14.89.15-.37-.34-.87-.62-1.28-1.9-3.08-4.57-5.43-7.27-7.75-5.44-4.76-11.36-8.82-17.6-12.44-1.24-.72-2.69-1.33-2.98-3.02,1.77-2.93,4.01-1.05,5.94-.41,8.09,2.66,14.13,8.31,19.79,14.3,2.21,2.33,5.37,3.84,6.61,6.64-.13-6.26-1.5-12.88-2-19.58Z"/><path class="uuid-a54151cb-3418-4387-bf60-237a7849910a" d="M134.84,43.78c.82,3.17,1.47,4.9,6.15,4.6,16.49-1.08,28.25-8.97,36.83-22.52.24-.38.79-.57,1.19-.84-3.25,13.43-10.25,24.29-21.92,31.95q-3.2-.75-.14-4.36c-4.42.56-7.42,3.99-11.54,4.68-1.78.3-3.11.61-5-.52-3.65-2.2-7.9.07-11.93-.52-2.34-.34-3.9-.55-3.4-3.36,2.75-3.58,5.78-6.86,9.77-9.11Z"/><path class="uuid-6d198cf4-d88b-45b0-a6a2-f97a4ddabaad" d="M24.38,132.84c2.06-3.65,3.15-7.84,5.97-11.08,2.33-1.13,2.95.66,2.6,2.08-1.82,7.4,3.09,12.56,5.87,18.4.92,1.93,2.22,3.69,3.32,5.54,1.69,2.86,1.89,5.75-.45,8.26-1.82,1.95-1.81,4.15-1.66,6.48-.13,1.52-.85,2.77-1.82,3.9-1.24,1.27-2.14,3.22-4.09,3.34-1.9.11-3.29-1.38-2.86-3.16.46-1.9-3.19-4.86,1.33-5.69.18-.03.49.38.78.38-2.67-3.3,3.28-4.69,1.72-7.75,1.61-2.61,1.72-5.22-.96-7.02-2.39-1.61-5.04-1.41-7.33.61-2.49,2.2-4.97,4.4-7.46,6.6-.19-.19-.38-.38-.57-.57-1.14-5.36,1.25-9.86,3.49-14.4v-.02c.9-1.89.79-4.15,2.11-5.89Z"/><path class="uuid-83d8997a-6d76-4d39-bb1b-472f28b5e50a" d="M181.68,122.83c3.94,5.79,5.56,12.62,8.42,18.89,2.17,2.72,2.45,6.47,4.92,9.03.56,1.7,1.88,3.63-1.3,4.16-3.17-2.59-6.31-5.2-9.51-7.75-2.09-1.66-4.49-2.17-6.92-.96-2.72,1.35-2.61,3.9-2.25,6.44,2.66,3.33,5.22,6.74,6.86,10.72.92,2.23,1.5,4.68-.77,6.28-2.37,1.67-4-.54-5.39-1.99-2.22-2.33-5.27-4.04-6.07-7.52.32-1.39,1.94-2.94.75-4.16-4.94-5.03.33-7.66,2.39-11.03.42-.68,1.14-1.18,1.69-1.81,2.11-2.41,3.69-4.78,2.92-8.44-.56-2.66-.24-5.63.74-8.31.6-1.65,1.12-3.59,3.53-3.53Z"/><path class="uuid-8365863c-5e0a-4bce-bf5c-a9aa3871f1bf" d="M125.07,52.89c.71,1.18.88,2.93,3.12,2.14,3.12-1.1,6.54,1.35,9.7-.68.57-.37,2.02-.4,2.34,0,4.41,5.47,8,.29,11.4-1.24,2.72-1.22,4.83-2.43,7.6-.71q-3.22,3.39-2.13,4.58c-9.26,6.49-19.4,9.45-30.76,8.05-2.73-.34-5.54-.05-8.92-.05,2.05-4.94,4.27-8.86,7.66-12.08Z"/><path class="uuid-5a0ef8e2-ff0d-4956-8d9c-e11dcdd37124" d="M104.84,48.84c.4.48.11,2.43,1.5.4,5.59-8.19,12.63-14.59,22.16-18.11,5.78-2.14,11.61-2.43,17.59-2.06-11.03,3.55-20.8,9.09-28.58,17.86-5.08,5.74-8.27,12.63-12.14,19.37-1.77-5.82-1.82-11.61-.54-17.46Z"/><path class="uuid-1ee66804-e1b9-4739-a4b3-7b89d171c940" d="M169.95,159.77c2.39,2.51,4.72,5.08,7.21,7.49.93.9,1.76,2.94,3.51,1.62,1.55-1.18,1.1-2.99.33-4.53-1.95-3.92-3.97-7.81-5.96-11.71,3.55,2.88,6.65,6.15,8.92,10.15,3.14,7.26,3.44,14.77,2.31,22.5-.45-4.71-5.08-5.47-7.43-8.17-5.59-6.39-12.02-11.88-20.14-14.94-1.45-.55-3.02-1.32-4.67-.48-1.17.22-2.02-.33-1.94-1.43.11-1.46,1.48-1.38,2.56-1.51,3.56.36,6.83,2.03,10.41,2.28.34-.29,1.4.29,1.04-.1-2.44-2.63-5.2-4.94-8.47-6.55-1.7-1.46-4.71-1.72-4.57-4.89.86-.64,1.9-.8,2.77-.33,5.22,2.84,10.81,5.22,14.13,10.59Z"/><path class="uuid-4a4a8bb7-e12e-42e7-af3f-b34cab7363d6" d="M35.1,153.54c.34,1,2.71,1.53.76,3.05-2.13,1.66-3.01,3.67-1.23,6.35-1.75-.11-1.67-1.97-3.39-1.19,1.35,2.16.01,5.53,2.3,6.92,1.96,1.2,2.17-2.29,3.78-2.93.69-.34.04,2.4,1.62.58,1.77-2.04,4.04-3.64,6.88-4.08.96.08,1.77.46,2.36,1.24-7.93,4.5-13.98,11.08-19.91,17.82-.68.77-1.1,2.35-2.59,1.8-1.25-.46-1.09-1.83-1.44-2.91-1.67-5.03-.02-9.79.92-14.62,2.64-4.57,5.33-9.1,9.94-12.05Z"/><path class="uuid-93dd8967-1e1a-4ebc-96ba-387ab38056f6" d="M165.3,15.23c2.36,1.56,5.22.13,8.06,1.42-6.96,1.13-13.59,1.42-20.25,1.27-20.31-.46-35.22,8.4-45.13,26.01-.45.8-.27,2.62-2.15,2.01,3.7-16.49,19.39-29.39,37.66-30.92,7.27-.61,14.54-.28,21.81.21Z"/><path class="uuid-12973d02-681f-4504-a913-455e7011fd53" d="M36.26,203.69c-3.35-4.79-8.43-8.6-6.82-15.87.53-2.39-.05-4.79,2.55-6.19,3.03-2.02,4.45-.85,4.69,2.44.12,1.62.02,3.26-.02,4.87-.11,3.81,1.67,6.5,4.55,8.67-1.65,2.02-3.3,4.05-4.95,6.07Z"/><path class="uuid-10672714-f367-446e-b53e-a6ea1d7eb35f" d="M182.11,184.65c.99,1,3.18.88.77,3.6-2.72,3.07-4.31,7.49-4.58,11.99-.18,2.93-1.17,4.76-4.38,2.47-2.19-2.42-3.55-6.09-7.9-5.25.66-.32,1.31-.63,1.97-.95,4.18-.65,6.22-3.13,6.36-7.32.03-.98.43-1.92.69-2.86,1.71-6.07,2.38-6.23,7.08-1.68Z"/><path class="uuid-c83590b3-fc6a-4f32-8af7-11e4ea9ad7da" d="M41.21,197.62c-4.77-1.04-6.47-4.3-5.76-11.95.27-2.9.39-4.97-3.46-4.04,1.17-1.23,1.47-3.24,3.39-3.79,1.6.63,2.19-2.08,3.87-1.17-1.67,3.43-1.73,6.05,1.03,9.61,2.05,2.64,1.4,7.38,1.95,11.19-.34.05-.69.1-1.03.15Z"/><path class="uuid-c3e3ca6b-1001-446b-bcb7-1db5c79813a3" d="M22.32,125.57c.34,3.58-2.76,6.47-2.05,10.12,0,5.88-1.54,11.67-1.09,17.58,0,0,.17.45.17.45-.15.29-.22.67-.46.86-1.23,1.02-2.31,3.19-3.87,2.62-1.83-.67-.87-2.93-.71-4.44,1.03-9.54,2.24-19.04,8-27.2Z"/><path class="uuid-3596ea8a-e1fe-479e-94e8-5d95c46bf8c3" d="M193.72,154.91c2.14-1.44.67-2.99.14-4.52-2.89-3.17-.99-7.18-1.86-10.7.04-.31.01-.61-.07-.91-1.13-1.4.37-3.38-1.04-4.72-1.5-1.98-.7-4.3-.94-6.47,5.49,9.03,6.74,19.05,7.29,29.39-2.05.12-2.74-1.04-3.52-2.08Z"/><path class="uuid-c83590b3-fc6a-4f32-8af7-11e4ea9ad7da" d="M50.28,206.65c-.4.73-1.07.94-1.84.97,1.67-3.89.48-7.1-2.39-9.89,3.78-.27,3.75,5.61,7.83,4.85.06.63.31,1.33.13,1.89-.41,1.27-1.33,1.16-2.36.63-2.44-1.26-.92,1.03-1.36,1.56Z"/><path class="uuid-eba756a2-9dcb-49d7-83b5-0e910d81be5e" d="M153.04,34.91c-2.57,4.3-6.94,4.57-11.23,5,3.24-2.8,7.19-3.99,11.23-5Z"/><path class="uuid-e92ab52b-60a9-4cb7-a5fa-58a8d8e4258a" d="M169.95,159.77c-5.55-3.45-10.1-8.62-16.91-9.94-1.68,1.11-3.18.18-4.69-.44-30.38-12.44-60.36-11.79-89.93,2.7-.3.15-.61.26-.91.39-1.91.5-3.55,1.76-5.55,2.02-4,1.14-7.43,3.17-10,6.52-.7.91-1.24,2.04-2.68,1.93-.73-2.81-1.86-5.43,1.54-7.73,2.34-1.59,1.8-4.17.33-6.59-2.73-4.5-5.41-9.04-7.74-13.76-1.56-3.15-3.67-6.42-1.59-10.27.8-1.48.32-2.57-1.48-2.82,2.99-5.73,6.21-11.32,10.78-15.98,3.47-3.77,6.76-7.72,11.18-10.49,1.01-.63,1.97-1.4,3.18-.85,1.66.76.35,1.96.32,2.99-.04,1.32-.04,2.79,1.34,3.47,1.36.67,2.58.08,3.53-1.03,2.63-3.09,6.27-4.81,9.51-7.07,7.72-4.28,15.77-4.24,23.42-.47,8.1,4,15.49,4.03,23.72.1,11.14-5.32,23.71-2.82,31.82,5.17.83,1.05,1.86,1.95,3.04,2.47,2,.88,3.52.73,3.41-2.15-.07-1.8-.89-4.29,2.48-4.12h-.01c2.59,1.7,4.3,4.42,6.99,6.01,7.1,6.55,12.78,14.12,16.63,23.02-3.9,3.16-3.59,7.87-3,11.77.57,3.74-.5,6.05-2.63,8.55-2.49,2.92-4.87,5.94-7.3,8.92,4.41,3.47,4.75,5.63,1.2,7.7Z"/><path class="uuid-bddc861e-2337-4273-890c-60e3d2c6d63a" d="M70.19,92.8c-3.83,3.02-7.49,6.28-11.54,8.95-2.32,1.54-5.04,1.94-3.52-2.65.39-1.18.26-2.54.4-4.26-6.58,1.68-9.3,7.9-14.39,10.92,6.34-9.52,15.2-15.49,26.24-18.44-3.04,2.66-6.12,5.28-9.11,8-1.16,1.06-2.85,2.16-1.12,4.07,1.8,2,2.84.24,4-.85,2.65-2.5,5.33-4.93,9.05-5.75Z"/><path class="uuid-621986a9-1e20-4220-bd43-037a867bfc32" d="M158.07,93.8c-3.58,1.89-.97,5.56-2.51,8.22-2.31-1.1-5.42-1.13-6.41-4.42.72.38,1.51.67,2.15,1.16,1.12.86,2.25,1.73,3.4.27,1.02-1.29.24-2.47-.62-3.56-2.79-3.55-7.06-5.29-11.44-9.03,6.74,1.22,11.59,3.22,15.44,7.35Z"/><path class="uuid-9794b91c-b0c1-488a-9eb6-8b39472a6fa9" d="M19.18,153.27c-1.86-6-.23-11.78,1.09-17.58q.29,4.1,2,3.06c-1.03,4.84-2.06,9.68-3.09,14.52Z"/><path class="uuid-40d781e5-fc5d-434e-855a-43a0089b85bf" d="M192,139.69c1.74,3.37.8,7.21,1.86,10.7-3.52-1.91-2.7-5.7-3.76-8.67,2.6,1.17,1.35-1.28,1.9-2.03Z"/><path class="uuid-621986a9-1e20-4220-bd43-037a867bfc32" d="M165.04,99.81c-3.39-.77-5.12-3.48-6.99-6.01,3.15,1.05,5.15,3.45,6.99,6.01Z"/><path class="uuid-9794b91c-b0c1-488a-9eb6-8b39472a6fa9" d="M24.38,132.84c-.19,2.14-.58,4.22-2.1,5.89-.17-2.27.09-4.39,2.1-5.89Z"/><path class="uuid-40d781e5-fc5d-434e-855a-43a0089b85bf" d="M190.89,134.06c1.64,1.29,1.01,3.08,1.04,4.72-1.46-1.33-.89-3.1-1.04-4.72Z"/><path class="uuid-4102e531-f7cf-4623-80bf-9f199b8fa208" d="M39.26,176.68c-1.38.09-1.95,2.88-3.87,1.17,5.97-6.69,14.06-10.41,21.3-15.34.96-.66,4.17-1.3.49-2.89,1.46-3.89,5.55-2.49,8.16-4.08,3.43-1.31,6.98-2.19,10.58-2.83,2.11-.38,5.2-.99,5.86,1.18.86,2.84-2.85,2.25-3.99,3.11,17.35-4.61,35.14-5.18,53.03-.67,3.63,1.27,6.97,4.33,11.01.08,1.57-1.65,4.73.34,7.18.03.99.04,1.97.17,2.92.45,1.21.68,3.23.53,2.97,2.78-.73.14-1.91.07-2.1.47-.37.78.53,1.24,1.22,1.56,7.09,4.89,14.91,8.74,21.05,14.96-.84,2.4-2.87.02-4.06,1.01-1.07,4.62-4.23,8.08-6.88,11.74-1.11,1.54-1.47,2.91-2.07,4.54-1.45,3.9-2.58,8.26-6.39,10.82-3.62,2.43-9.49,2.69-8.69,9.25-2.53.26-4.71,1.37-6.98,2.46-1.65.79-3.2,1.33-4.43,2.87-1.9,2.37-4.09,4.01-5.13-.72-.14-.63-.42-.85-.94-.82-1.06.07-1.4.89-1.35,1.74.14,2.48-1.45,2.55-3.36,3.2-8.17,2.79-16.84,3.09-24.77,1.4-6.6-1.41-13.64-1.54-20.13-5.17-3.97-2.22-7.46-5.69-12.17-6.83-1.66-.4-2.97-2.08-3.49-3.97-.27-1.01-.74-2.25-1.73-2.21-5.76.25-6.73-5.56-10.18-8.2-2.47-1.89-5.91-4.35-4.79-9.1.37-1.57-1.31-4.16-3.26-5.3-2.5-1.46-3.8-3.13-2.39-6.06.35-.72.59-1.76-.43-2.13-1.23-.46-1.69.65-2.19,1.49Z"/><path class="uuid-1d84b2a9-cf2f-4897-9c76-b0cc6d80dba6" d="M171.01,177.67c-1.07-.98-.94-1.88.54-1.5,1.19.3,2.17,1.39,3.52.5,2.78,2.28,5.8,4.35,7.04,7.98-1.46-.73-2.91-1.47-4.76-2.4-.44,3.24-1.72,6.07-2.14,9.32-.46,3.52-2.25,7.07-7.22,4.95,1.35-4.65,4.93-8.2,5.96-13.17.7-3.38-.43-4.56-2.93-5.67Z"/><path class="uuid-42324df9-7030-4923-80d1-a27379be3979" d="M65.18,156.68c-2.34,1.86-5.75.82-8,2.94-2.83,1.69-6.5,1.41-9,3.87-.72-.09-1.62.24-1.96-.79.52-2.13,2.41-2.82,4.01-3.81,3.1-1.25,5.76-3.58,9.3-3.74,1.91.43,4.07-.08,5.65,1.54Z"/><path class="uuid-2a9de5bc-5e6d-425f-ae2c-dafa0ec6fc13" d="M50.17,159.94c-1.32.92-2.63,1.84-3.95,2.76-2.66,1.18-4.87,3.05-7.23,4.7-2.73,1.91-1.24-.95-1.67-1.65.66-.94,1.32-1.87,1.98-2.81.66-.74,1.31-1.48,1.97-2.22,2.77-3.11,6.49-4.84,10.03-6.83,1.66-.71,3.33-1.41,4.99-2.12-.1,4.17-4.26,5.31-6.11,8.16Z"/><path class="uuid-2118e9c8-24f7-409c-aebf-caa5e9d80a22" d="M50.17,159.94c.48-3.89,4.56-5.08,6.11-8.16,30.86-16.12,62.22-16.57,94.03-2.99.9.38,1.82.7,2.74,1.05,1.71,1.24,3.41,2.47,5.12,3.71.93,1.13,2.23,1.86,3.16,2.98,1.71,2.06.51,2.79-1.49,3.12-2.28.17-3.92-1.54-5.98-2-17.22-7.29-35.16-10.24-53.84-9.55-10.9.4-21.34,2.75-31.66,5.93-3.01.93-5.98,1.98-9.19,1.86-2.99,1.36-5.98,2.71-8.97,4.07Z"/><path class="uuid-dfe67e70-dc31-452a-8cab-fa669d1fcff1" d="M160.24,158.77c1.46-.28,1.37-.93.51-1.89-.94-1.05-2.31-1.79-2.59-3.35,4.76,1.89,7.95,5.66,11.64,9.59-2.15.62-3.24-.97-4.66-1.26-2.01-.44-4.42-.22-4.9-3.09Z"/><path class="uuid-194fc4ea-189c-43fe-9205-2dc2b125ade7" d="M160.24,158.77c1.63,1.03,3.27,2.06,4.9,3.08-3.76.93-6.86-1.26-10.24-2.19-.99-.63-1.98-1.26-2.97-1.89.76-1.16,2.22-.1,3.07-.98,1.74.66,3.49,1.31,5.23,1.97Z"/><path class="uuid-7c039cac-fe12-452f-80b2-6d7487f8f1a6" d="M105.02,134.6c-5.48-.2-11.01-2.26-15.03-7.64-1.36-1.81-2.17-3.71-2.04-5.97.14-2.37,1.21-4.2,3.53-4.91,2.46-.75,4.04.55,5.31,2.6,4.63,7.49,13.45,7.59,17.74.17,1.44-2.48,3.15-3.98,6.01-2.74,2.95,1.27,3.41,3.81,2.8,6.68-1.34,6.26-9.38,11.72-18.31,11.81Z"/><path class="uuid-31922e8f-c7ee-4e8d-a8c6-ce114c38b436" d="M73.04,102.77c5.37-.08,9.85,4.24,9.99,9.64.14,5.32-4.58,10.25-9.98,10.42-5.49.17-9.98-4.01-10.11-9.43-.15-5.96,4.21-10.55,10.11-10.63Z"/><path class="uuid-7c46c963-645d-4e6b-a958-ec14949c4892" d="M138.36,102.81c5.69-.02,9.69,4.23,9.67,10.29-.01,5.29-4.53,9.73-9.87,9.69-5.59-.04-10-4.24-10-9.53,0-6.11,4.22-10.44,10.2-10.46Z"/><path class="uuid-6d198cf4-d88b-45b0-a6a2-f97a4ddabaad" d="M51.29,153.89c-3.01,2.77-6.46,4.88-10.03,6.83,1.99-4.26,5.78-5.88,10.03-6.83Z"/><path class="uuid-b30670db-4628-4511-9bdc-fc95f7be9a35" d="M155,156.81c-.76,1.17-2.02.73-3.07.98-.92-.04-1.84-.09-2.76-.13-7.52-2.1-15.52-1.87-22.9-4.69,2.13.63,4.39.83,6.31,2.04.84.53,1.85,1.28,1.39,2.33-.63,1.42-1.82,1.03-2.88.31-19.03-4.61-37.98-3.19-57.31,1.24,2.14-2.88,5.33-2.82,7.96-4.98-6.17-.7-11.23,1.94-16.56,2.77-1.98-.49-4.22.91-6.03-.82,28.81-11.97,57.98-12.17,87.42-2.63,2.9.94,5.63,2.37,8.44,3.58Z"/><path class="uuid-0111252f-5a67-4f32-afa5-4b187d658993" d="M105.87,204.67c-8.38-.05-15.58-6.29-15.63-13.55-.05-7.94,6.88-14.52,15.23-14.46,8.45.06,15.56,6.86,15.56,14.87,0,7.12-6.99,13.18-15.16,13.14Z"/><path class="uuid-389da1e6-5b38-4dbe-b810-55e563a80cbf" d="M131.09,157.64c.78-.13,1.57-.27,3.12-.53-3.46-1.54-6.24-2.78-9.98-4.44,9.26.45,17.28,1.8,24.94,4.98-1.61-.11-3.26-.04-4.83-.38-1.81-.39-3.4-1.06-2.68,1.94.26,1.07-.66,1.6-1.47,1.29-2.98-1.15-6.57-.34-9.1-2.87Z"/><path class="uuid-34c18d5f-e051-4a38-b24f-d38c75c9b7ea" d="M101.71,197.49c-.32-.36-.61-.75-.97-1.07-5.74-5.11-5.74-5.2-.36-10.53,3.55-3.52,7.96-3.34,11.37.92,1.46,1.82,5.45,3.12,2.52,6.73-1.4,3.3-4.15,5.13-7.38,6.04-1.95.55-4.39.9-5.18-2.08Z"/><path class="uuid-c901d38a-87a1-4d1c-a43e-e2f13d81a6f5" d="M101.71,197.49c5.49,2.81,8.94-.83,12.56-3.96-.02,2.67-3.53,6.74-7.03,7.83-2.48.77-4.8.51-6.7-1.72-1.79-2.1-.13-1.94,1.18-2.15Z"/></svg>